<?xml version="1.0" encoding="UTF-8" standalone="no"?>
<!DOCTYPE svg PUBLIC "-//W3C//DTD SVG 1.1//EN"
 "http://www.w3.org/Graphics/SVG/1.1/DTD/svg11.dtd">
<!-- Generated by graphviz version 7.1.0 (20230121.1956)
 -->
<!-- Title: G Pages: 1 -->
<svg width="396pt" height="735pt"
 viewBox="0.00 0.00 396.08 735.43" xmlns="http://www.w3.org/2000/svg" xmlns:xlink="http://www.w3.org/1999/xlink">
<g id="graph0" class="graph" transform="scale(1 1) rotate(0) translate(4 731.43)">
<title>G</title><style>.edge>path:hover{stroke-width:8}</style>
<polygon fill="white" stroke="none" points="-4,4 -4,-731.43 392.08,-731.43 392.08,4 -4,4"/>
<!-- app_auth -->
<g id="node1" class="node">
<title>app_auth</title><style>.edge>path:hover{stroke-width:8}</style>
<ellipse fill="#931a1a" stroke="black" cx="154" cy="-312.43" rx="31.58" ry="18"/>
<text text-anchor="middle" x="154" y="-309.93" font-family="Helvetica,sans-Serif" font-size="10.00" fill="#ffffff">app.auth</text>
</g>
<!-- app_crud -->
<g id="node2" class="node">
<title>app_crud</title><style>.edge>path:hover{stroke-width:8}</style>
<ellipse fill="#b83d3d" stroke="black" cx="174" cy="-240.43" rx="31.58" ry="18"/>
<text text-anchor="middle" x="174" y="-237.93" font-family="Helvetica,sans-Serif" font-size="10.00" fill="#ffffff">app.crud</text>
</g>
<!-- app_auth&#45;&gt;app_crud -->
<g id="edge1" class="edge">
<title>app_auth&#45;&gt;app_crud</title><style>.edge>path:hover{stroke-width:8}</style>
<path fill="none" stroke="black" d="M158.84,-294.48C160.97,-287.03 163.53,-278.07 165.94,-269.65"/>
<polygon fill="#931a1a" stroke="black" points="169.27,-270.73 168.65,-260.16 162.54,-268.81 169.27,-270.73"/>
</g>
<!-- app_main -->
<g id="node4" class="node">
<title>app_main</title><style>.edge>path:hover{stroke-width:8}</style>
<ellipse fill="#7a2828" stroke="black" cx="137" cy="-168.43" rx="32.93" ry="18"/>
<text text-anchor="middle" x="137" y="-165.93" font-family="Helvetica,sans-Serif" font-size="10.00" fill="#ffffff">app.main</text>
</g>
<!-- app_auth&#45;&gt;app_main -->
<g id="edge2" class="edge">
<title>app_auth&#45;&gt;app_main</title><style>.edge>path:hover{stroke-width:8}</style>
<path fill="none" stroke="black" d="M114,-239.43C109.42,-224.89 114.08,-208.72 120.38,-195.59"/>
<polygon fill="#931a1a" stroke="black" points="123.27,-197.6 124.92,-187.13 117.11,-194.29 123.27,-197.6"/>
</g>
<!-- app_test_wrapper -->
<g id="node7" class="node">
<title>app_test_wrapper</title><style>.edge>path:hover{stroke-width:8}</style>
<ellipse fill="#732626" stroke="black" cx="118" cy="-93.21" rx="51.74" ry="21.43"/>
<text text-anchor="middle" x="118" y="-96.21" font-family="Helvetica,sans-Serif" font-size="10.00" fill="#ffffff">app.</text>
<text text-anchor="middle" x="118" y="-85.21" font-family="Helvetica,sans-Serif" font-size="10.00" fill="#ffffff">test_wrapper</text>
</g>
<!-- app_auth&#45;&gt;app_test_wrapper -->
<g id="edge3" class="edge">
<title>app_auth&#45;&gt;app_test_wrapper</title><style>.edge>path:hover{stroke-width:8}</style>
<path fill="none" stroke="black" d="M114,-239.43C103.35,-205.67 67.08,-203.68 76,-169.43"/>
<path fill="none" stroke="black" d="M142.16,-295.39C132.79,-281.77 120.27,-261.32 114,-241.43"/>
</g>
<!-- app_crud&#45;&gt;app_main -->
<g id="edge4" class="edge">
<title>app_crud&#45;&gt;app_main</title><style>.edge>path:hover{stroke-width:8}</style>
<path fill="none" stroke="black" d="M165.23,-222.84C160.99,-214.82 155.8,-204.99 151.03,-195.97"/>
<polygon fill="#b83d3d" stroke="black" points="154.18,-194.44 146.41,-187.23 147.99,-197.71 154.18,-194.44"/>
</g>
<!-- app_db -->
<g id="node3" class="node">
<title>app_db</title><style>.edge>path:hover{stroke-width:8}</style>
<ellipse fill="#8a2e2e" stroke="black" cx="361" cy="-312.43" rx="27.16" ry="18"/>
<text text-anchor="middle" x="361" y="-309.93" font-family="Helvetica,sans-Serif" font-size="10.00" fill="#ffffff">app.db</text>
</g>
<!-- app_db&#45;&gt;app_main -->
<g id="edge5" class="edge">
<title>app_db&#45;&gt;app_main</title><style>.edge>path:hover{stroke-width:8}</style>
<path fill="none" stroke="black" d="M339.18,-301.11C309.91,-287.22 260.71,-263.62 253,-258.43 243.6,-252.09 242.26,-249.19 234,-241.43"/>
</g>
<!-- app_main&#45;&gt;app_test_wrapper -->
<g id="edge6" class="edge">
<title>app_main&#45;&gt;app_test_wrapper</title><style>.edge>path:hover{stroke-width:8}</style>
<path fill="none" stroke="black" d="M132.59,-150.45C130.71,-143.19 128.45,-134.46 126.27,-126.08"/>
<polygon fill="#7a2828" stroke="black" points="129.68,-125.29 123.78,-116.49 122.9,-127.05 129.68,-125.29"/>
</g>
<!-- app_models -->
<g id="node5" class="node">
<title>app_models</title><style>.edge>path:hover{stroke-width:8}</style>
<ellipse fill="#dd1818" stroke="black" cx="105" cy="-384.43" rx="39.38" ry="18"/>
<text text-anchor="middle" x="105" y="-381.93" font-family="Helvetica,sans-Serif" font-size="10.00" fill="#ffffff">app.models</text>
</g>
<!-- app_models&#45;&gt;app_auth -->
<g id="edge7" class="edge">
<title>app_models&#45;&gt;app_auth</title><style>.edge>path:hover{stroke-width:8}</style>
<path fill="none" stroke="black" d="M116.61,-366.84C122.49,-358.44 129.76,-348.06 136.32,-338.69"/>
<polygon fill="#dd1818" stroke="black" points="139.07,-340.85 141.94,-330.65 133.34,-336.84 139.07,-340.85"/>
</g>
<!-- app_models&#45;&gt;app_main -->
<g id="edge8" class="edge">
<title>app_models&#45;&gt;app_main</title><style>.edge>path:hover{stroke-width:8}</style>
<path fill="none" stroke="black" d="M76,-239.43C77.08,-219.16 91.84,-201.9 106.57,-189.59"/>
<polygon fill="#dd1818" stroke="black" points="108.66,-192.4 114.42,-183.51 104.38,-186.87 108.66,-192.4"/>
</g>
<!-- app_test -->
<g id="node6" class="node">
<title>app_test</title><style>.edge>path:hover{stroke-width:8}</style>
<ellipse fill="#9d4343" stroke="black" cx="118" cy="-18" rx="30.72" ry="18"/>
<text text-anchor="middle" x="118" y="-15.5" font-family="Helvetica,sans-Serif" font-size="10.00" fill="#ffffff">app.test</text>
</g>
<!-- app_models&#45;&gt;app_test -->
<g id="edge9" class="edge">
<title>app_models&#45;&gt;app_test</title><style>.edge>path:hover{stroke-width:8}</style>
<path fill="none" stroke="black" d="M98.68,-366.59C89.43,-340.21 73.56,-287.41 76,-241.43"/>
<path fill="none" stroke="black" d="M76,-239.43C75.94,-215.06 65.97,-210.46 62,-186.43 56.77,-154.78 58.11,-146.48 57,-114.43 56.35,-95.58 49.18,-89.16 57,-72 63.34,-58.1 75.32,-46.44 87,-37.62"/>
<polygon fill="#dd1818" stroke="black" points="88.77,-40.65 94.95,-32.04 84.75,-34.92 88.77,-40.65"/>
</g>
<!-- app_models&#45;&gt;app_test_wrapper -->
<g id="edge10" class="edge">
<title>app_models&#45;&gt;app_test_wrapper</title><style>.edge>path:hover{stroke-width:8}</style>
<path fill="none" stroke="black" d="M76,-239.43C77.65,-208.36 68.16,-199.53 76,-169.43"/>
</g>
<!-- app_test_wrapper&#45;&gt;app_test -->
<g id="edge11" class="edge">
<title>app_test_wrapper&#45;&gt;app_test</title><style>.edge>path:hover{stroke-width:8}</style>
<path fill="none" stroke="black" d="M118,-71.43C118,-64.02 118,-55.53 118,-47.58"/>
<polygon fill="#732626" stroke="black" points="121.5,-47.64 118,-37.64 114.5,-47.64 121.5,-47.64"/>
</g>
<!-- fastapi -->
<g id="node8" class="node">
<title>fastapi</title><style>.edge>path:hover{stroke-width:8}</style>
<polygon fill="#b69553" stroke="black" points="316,-330.43 313,-334.43 292,-334.43 289,-330.43 262,-330.43 262,-294.43 316,-294.43 316,-330.43"/>
<text text-anchor="middle" x="289" y="-309.93" font-family="Helvetica,sans-Serif" font-size="10.00" fill="#000000">fastapi</text>
</g>
<!-- fastapi&#45;&gt;app_main -->
<g id="edge12" class="edge">
<title>fastapi&#45;&gt;app_main</title><style>.edge>path:hover{stroke-width:8}</style>
<path fill="none" stroke="black" d="M277.62,-294.12C267.3,-279.18 251.12,-257.52 234,-241.43"/>
</g>
<!-- httpx -->
<g id="node9" class="node">
<title>httpx</title><style>.edge>path:hover{stroke-width:8}</style>
<polygon fill="#99c247" stroke="black" points="316,-258.43 313,-262.43 292,-262.43 289,-258.43 262,-258.43 262,-222.43 316,-222.43 316,-258.43"/>
<text text-anchor="middle" x="289" y="-237.93" font-family="Helvetica,sans-Serif" font-size="10.00" fill="#000000">httpx</text>
</g>
<!-- httpx&#45;&gt;app_test -->
<g id="edge13" class="edge">
<title>httpx&#45;&gt;app_test</title><style>.edge>path:hover{stroke-width:8}</style>
<path fill="none" stroke="black" d="M198,-92.21C184.26,-71.4 163.32,-52.52 146.31,-39.15"/>
<polygon fill="#99c247" stroke="black" points="148.61,-36.51 138.54,-33.23 144.37,-42.07 148.61,-36.51"/>
<path fill="none" stroke="black" d="M198,-167.43C177.16,-142.44 215.92,-121.37 198,-94.21"/>
</g>
<!-- httpx&#45;&gt;app_test_wrapper -->
<g id="edge14" class="edge">
<title>httpx&#45;&gt;app_test_wrapper</title><style>.edge>path:hover{stroke-width:8}</style>
<path fill="none" stroke="black" d="M261.72,-223.08C242.14,-210.32 216.13,-191.16 198,-169.43"/>
<path fill="none" stroke="black" d="M198,-167.43C183.69,-150.26 165.45,-133.28 150,-119.99"/>
<polygon fill="#99c247" stroke="black" points="152.33,-117.38 142.43,-113.6 147.81,-122.73 152.33,-117.38"/>
</g>
<!-- jose -->
<g id="node10" class="node">
<title>jose</title><style>.edge>path:hover{stroke-width:8}</style>
<polygon fill="#47c247" stroke="black" points="254,-474.43 251,-478.43 230,-478.43 227,-474.43 200,-474.43 200,-438.43 254,-438.43 254,-474.43"/>
<text text-anchor="middle" x="227" y="-453.93" font-family="Helvetica,sans-Serif" font-size="10.00" fill="#000000">jose</text>
</g>
<!-- jose&#45;&gt;app_auth -->
<g id="edge15" class="edge">
<title>jose&#45;&gt;app_auth</title><style>.edge>path:hover{stroke-width:8}</style>
<path fill="none" stroke="black" d="M210.19,-438.05C198.04,-424.64 182.06,-405.11 172,-385.43"/>
</g>
<!-- passlib -->
<g id="node11" class="node">
<title>passlib</title><style>.edge>path:hover{stroke-width:8}</style>
<polygon fill="#47c299" stroke="black" points="326,-474.43 323,-478.43 302,-478.43 299,-474.43 272,-474.43 272,-438.43 326,-438.43 326,-474.43"/>
<text text-anchor="middle" x="299" y="-453.93" font-family="Helvetica,sans-Serif" font-size="10.00" fill="#000000">passlib</text>
</g>
<!-- passlib&#45;&gt;app_auth -->
<g id="edge16" class="edge">
<title>passlib&#45;&gt;app_auth</title><style>.edge>path:hover{stroke-width:8}</style>
<path fill="none" stroke="black" d="M271.63,-442.38C235.84,-425.01 177.07,-395.35 172,-385.43"/>
</g>
<!-- pydantic -->
<g id="node12" class="node">
<title>pydantic</title><style>.edge>path:hover{stroke-width:8}</style>
<polygon fill="#5395b6" stroke="black" points="132,-546.43 129,-550.43 108,-550.43 105,-546.43 78,-546.43 78,-510.43 132,-510.43 132,-546.43"/>
<text text-anchor="middle" x="105" y="-525.93" font-family="Helvetica,sans-Serif" font-size="10.00" fill="#000000">pydantic</text>
</g>
<!-- pydantic&#45;&gt;app_models -->
<g id="edge17" class="edge">
<title>pydantic&#45;&gt;app_models</title><style>.edge>path:hover{stroke-width:8}</style>
<path fill="none" stroke="black" d="M105,-510.01C105,-486.04 105,-442.57 105,-413.84"/>
<polygon fill="#5395b6" stroke="black" points="108.5,-414.05 105,-404.05 101.5,-414.05 108.5,-414.05"/>
</g>
<!-- pytest -->
<g id="node13" class="node">
<title>pytest</title><style>.edge>path:hover{stroke-width:8}</style>
<polygon fill="#5353b6" stroke="black" points="280,-186.43 277,-190.43 256,-190.43 253,-186.43 226,-186.43 226,-150.43 280,-150.43 280,-186.43"/>
<text text-anchor="middle" x="253" y="-165.93" font-family="Helvetica,sans-Serif" font-size="10.00" fill="#ffffff">pytest</text>
</g>
<!-- pytest&#45;&gt;app_test -->
<g id="edge18" class="edge">
<title>pytest&#45;&gt;app_test</title><style>.edge>path:hover{stroke-width:8}</style>
<path fill="none" stroke="black" d="M239.05,-150.11C227.54,-135.54 211.05,-113.98 198,-94.21"/>
</g>
<!-- sqlalchemy -->
<g id="node14" class="node">
<title>sqlalchemy</title><style>.edge>path:hover{stroke-width:8}</style>
<polygon fill="#a806f9" stroke="black" points="162,-727.43 159,-731.43 138,-731.43 135,-727.43 96,-727.43 96,-691.43 162,-691.43 162,-727.43"/>
<text text-anchor="middle" x="129" y="-706.93" font-family="Helvetica,sans-Serif" font-size="10.00" fill="#ffffff">sqlalchemy</text>
</g>
<!-- sqlalchemy&#45;&gt;app_db -->
<g id="edge19" class="edge">
<title>sqlalchemy&#45;&gt;app_db</title><style>.edge>path:hover{stroke-width:8}</style>
<path fill="none" stroke="black" d="M129,-654.43C127.82,-638.2 352.06,-488.63 360,-474.43 383.3,-432.74 375.95,-374.98 368.48,-341.18"/>
<polygon fill="#a806f9" stroke="black" points="371.95,-340.67 366.23,-331.75 365.14,-342.29 371.95,-340.67"/>
</g>
<!-- sqlalchemy&#45;&gt;app_test_wrapper -->
<g id="edge20" class="edge">
<title>sqlalchemy&#45;&gt;app_test_wrapper</title><style>.edge>path:hover{stroke-width:8}</style>
<path fill="none" stroke="black" d="M129.48,-691.23C129.65,-680.85 129.66,-667.37 129,-655.43"/>
<path fill="none" stroke="black" d="M129,-654.43C127.74,-631.52 106.67,-636.07 92,-618.43 39.32,-555.05 0,-539.84 0,-457.43 0,-457.43 0,-457.43 0,-239.43 0,-187.24 46.47,-143.37 81.08,-117.93"/>
<polygon fill="#a806f9" stroke="black" points="82.68,-121.08 88.8,-112.43 78.63,-115.38 82.68,-121.08"/>
</g>
<!-- sqlmodel -->
<g id="node15" class="node">
<title>sqlmodel</title><style>.edge>path:hover{stroke-width:8}</style>
<polygon fill="#f906a8" stroke="black" points="157,-618.43 154,-622.43 133,-622.43 130,-618.43 101,-618.43 101,-582.43 157,-582.43 157,-618.43"/>
<text text-anchor="middle" x="129" y="-597.93" font-family="Helvetica,sans-Serif" font-size="10.00" fill="#ffffff">sqlmodel</text>
</g>
<!-- sqlalchemy&#45;&gt;sqlmodel -->
<g id="edge21" class="edge">
<title>sqlalchemy&#45;&gt;sqlmodel</title><style>.edge>path:hover{stroke-width:8}</style>
<path fill="none" stroke="black" d="M129,-654.43C128.42,-646.5 128.23,-637.9 128.24,-629.97"/>
<polygon fill="#a806f9" stroke="black" points="131.74,-630.19 128.35,-620.15 124.74,-630.11 131.74,-630.19"/>
</g>
<!-- sqlmodel&#45;&gt;app_auth -->
<g id="edge22" class="edge">
<title>sqlmodel&#45;&gt;app_auth</title><style>.edge>path:hover{stroke-width:8}</style>
<path fill="none" stroke="black" d="M172,-455.43C157.17,-428.08 186.16,-413.13 172,-385.43"/>
<path fill="none" stroke="black" d="M172,-383.43C165.44,-370.6 161.14,-355.19 158.4,-342.1"/>
<polygon fill="#f906a8" stroke="black" points="161.86,-341.54 156.57,-332.36 154.98,-342.83 161.86,-341.54"/>
</g>
<!-- sqlmodel&#45;&gt;app_crud -->
<g id="edge23" class="edge">
<title>sqlmodel&#45;&gt;app_crud</title><style>.edge>path:hover{stroke-width:8}</style>
<path fill="none" stroke="black" d="M234,-311.43C220.91,-296.27 206.28,-279.21 194.74,-265.72"/>
<polygon fill="#f906a8" stroke="black" points="197.45,-263.5 188.29,-258.18 192.13,-268.05 197.45,-263.5"/>
<path fill="none" stroke="black" d="M354,-383.43C337.44,-335.51 294.65,-359.32 253,-330.43 243.69,-323.97 241.41,-322 234,-313.43"/>
<path fill="none" stroke="black" d="M217,-527.43C255.2,-484.46 298.87,-519.15 335,-474.43 360.42,-442.96 367.21,-423.66 354,-385.43"/>
</g>
<!-- sqlmodel&#45;&gt;app_db -->
<g id="edge24" class="edge">
<title>sqlmodel&#45;&gt;app_db</title><style>.edge>path:hover{stroke-width:8}</style>
<path fill="none" stroke="black" d="M354,-383.43C349.39,-370.08 350.37,-354.51 352.83,-341.45"/>
<polygon fill="#f906a8" stroke="black" points="356.23,-342.3 355.05,-331.77 349.41,-340.74 356.23,-342.3"/>
</g>
<!-- sqlmodel&#45;&gt;app_main -->
<g id="edge25" class="edge">
<title>sqlmodel&#45;&gt;app_main</title><style>.edge>path:hover{stroke-width:8}</style>
<path fill="none" stroke="black" d="M234,-311.43C213.66,-287.89 256.67,-262.74 234,-241.43"/>
<path fill="none" stroke="black" d="M234,-239.43C225.74,-231.66 223.93,-229.4 215,-222.43 199.91,-210.63 182.32,-198.55 167.67,-188.9"/>
<polygon fill="#f906a8" stroke="black" points="169.62,-186 159.33,-183.47 165.8,-191.86 169.62,-186"/>
</g>
<!-- sqlmodel&#45;&gt;app_models -->
<g id="edge26" class="edge">
<title>sqlmodel&#45;&gt;app_models</title><style>.edge>path:hover{stroke-width:8}</style>
<path fill="none" stroke="black" d="M172,-455.43C162.1,-437.18 146.18,-420.26 132.34,-407.63"/>
<polygon fill="#f906a8" stroke="black" points="135.02,-405.32 125.2,-401.34 130.4,-410.58 135.02,-405.32"/>
<path fill="none" stroke="black" d="M217,-527.43C241.58,-499.79 189.64,-489.94 172,-457.43"/>
<path fill="none" stroke="black" d="M155.25,-582.19C173.87,-569.14 198.71,-550 217,-529.43"/>
</g>
<!-- sqlmodel&#45;&gt;app_test_wrapper -->
<g id="edge27" class="edge">
<title>sqlmodel&#45;&gt;app_test_wrapper</title><style>.edge>path:hover{stroke-width:8}</style>
<path fill="none" stroke="black" d="M76,-167.43C80.06,-151.83 88.38,-136.13 96.55,-123.28"/>
<polygon fill="#f906a8" stroke="black" points="99.22,-125.59 101.86,-115.32 93.4,-121.7 99.22,-125.59"/>
<path fill="none" stroke="black" d="M103.76,-581.93C91.83,-572.58 78.22,-560.16 69,-546.43 45.65,-511.65 38,-499.31 38,-457.43 38,-457.43 38,-457.43 38,-311.43 38,-246.09 59.54,-232.65 76,-169.43"/>
</g>
</g>
</svg>
